<svg width="186" height="76" viewBox="0 0 186 76" fill="none" xmlns="http://www.w3.org/2000/svg">
<rect width="186" height="76" rx="20" fill="#CCE8FD"/>
<path opacity="0.4" d="M65.992 31.168C64.4333 31.168 63.15 30.678 62.142 29.698C61.1433 28.718 60.644 27.4953 60.644 26.03C60.644 24.5833 61.1387 23.3653 62.128 22.376C63.1173 21.3867 64.3493 20.892 65.824 20.892C67.3453 20.892 68.5913 21.354 69.562 22.278L68.694 23.216C67.9007 22.488 66.944 22.124 65.824 22.124C64.704 22.124 63.7753 22.502 63.038 23.258C62.31 24.0047 61.946 24.9287 61.946 26.03C61.946 27.15 62.3147 28.0833 63.052 28.83C63.7987 29.5673 64.7787 29.936 65.992 29.936C67.1307 29.936 68.0127 29.6887 68.638 29.194V26.534H65.824V25.316H69.898V29.768C69.4593 30.2253 68.8947 30.5753 68.204 30.818C67.5133 31.0513 66.776 31.168 65.992 31.168ZM74.7791 31.14C73.7057 31.14 72.8331 30.7947 72.1611 30.104C71.4891 29.4133 71.1531 28.5453 71.1531 27.5C71.1531 26.464 71.4937 25.6007 72.1751 24.91C72.8564 24.21 73.7291 23.86 74.7931 23.86C75.7357 23.86 76.5244 24.1773 77.1591 24.812C77.8031 25.4373 78.1251 26.2913 78.1251 27.374C78.1251 27.514 78.1204 27.6353 78.1111 27.738H72.3711C72.3897 28.3913 72.6231 28.9373 73.0711 29.376C73.5284 29.8147 74.1024 30.034 74.7931 30.034C75.7731 30.034 76.5011 29.628 76.9771 28.816L77.9291 29.474C77.2477 30.5847 76.1977 31.14 74.7791 31.14ZM72.4551 26.758H76.8931C76.7997 26.198 76.5524 25.7547 76.1511 25.428C75.7591 25.092 75.2924 24.924 74.7511 24.924C74.2004 24.924 73.7057 25.092 73.2671 25.428C72.8377 25.7547 72.5671 26.198 72.4551 26.758ZM82.3141 31.07C81.6701 31.07 81.1521 30.888 80.7601 30.524C80.3681 30.16 80.1721 29.628 80.1721 28.928V25.106H78.6881V24H80.1721V22.054H81.3761V24H83.3921V25.106H81.3761V28.774C81.3761 29.2127 81.4695 29.5207 81.6561 29.698C81.8428 29.8753 82.1368 29.964 82.5381 29.964C82.8928 29.964 83.1775 29.9173 83.3921 29.824V30.902C83.0561 31.014 82.6968 31.07 82.3141 31.07ZM91.1351 31.14C90.0805 31.14 89.2031 30.79 88.5031 30.09C87.8125 29.3807 87.4671 28.5173 87.4671 27.5C87.4671 26.4827 87.8125 25.624 88.5031 24.924C89.2031 24.2147 90.0805 23.86 91.1351 23.86C92.1805 23.86 93.0485 24.2147 93.7391 24.924C94.4391 25.624 94.7891 26.4827 94.7891 27.5C94.7891 28.5173 94.4391 29.3807 93.7391 30.09C93.0485 30.79 92.1805 31.14 91.1351 31.14ZM89.3711 29.292C89.8285 29.7773 90.4165 30.02 91.1351 30.02C91.8538 30.02 92.4371 29.7773 92.8851 29.292C93.3331 28.8067 93.5571 28.2093 93.5571 27.5C93.5571 26.7907 93.3331 26.1933 92.8851 25.708C92.4371 25.2227 91.8538 24.98 91.1351 24.98C90.4165 24.98 89.8285 25.2227 89.3711 25.708C88.9231 26.1933 88.6991 26.7907 88.6991 27.5C88.6991 28.2093 88.9231 28.8067 89.3711 29.292ZM96.3774 31V24H97.5814V25.078C98.0574 24.266 98.7994 23.86 99.8074 23.86C100.601 23.86 101.24 24.1167 101.725 24.63C102.211 25.1433 102.453 25.8293 102.453 26.688V31H101.263V26.87C101.263 26.282 101.114 25.82 100.815 25.484C100.517 25.1387 100.115 24.966 99.6114 24.966C99.0327 24.966 98.5474 25.1947 98.1554 25.652C97.7727 26.1093 97.5814 26.7347 97.5814 27.528V31H96.3774ZM110.202 31.07C109.558 31.07 109.04 30.888 108.648 30.524C108.256 30.16 108.06 29.628 108.06 28.928V25.106H106.576V24H108.06V22.054H109.264V24H111.28V25.106H109.264V28.774C109.264 29.2127 109.357 29.5207 109.544 29.698C109.731 29.8753 110.025 29.964 110.426 29.964C110.781 29.964 111.065 29.9173 111.28 29.824V30.902C110.944 31.014 110.585 31.07 110.202 31.07ZM113.882 31H112.678V20.5H113.882V25.078C114.358 24.266 115.1 23.86 116.108 23.86C116.901 23.86 117.541 24.1167 118.026 24.63C118.511 25.1433 118.754 25.8293 118.754 26.688V31H117.564V26.87C117.564 26.282 117.415 25.82 117.116 25.484C116.817 25.1387 116.416 24.966 115.912 24.966C115.333 24.966 114.848 25.1947 114.456 25.652C114.073 26.1093 113.882 26.7347 113.882 27.528V31ZM123.862 31.14C122.789 31.14 121.916 30.7947 121.244 30.104C120.572 29.4133 120.236 28.5453 120.236 27.5C120.236 26.464 120.577 25.6007 121.258 24.91C121.94 24.21 122.812 23.86 123.876 23.86C124.819 23.86 125.608 24.1773 126.242 24.812C126.886 25.4373 127.208 26.2913 127.208 27.374C127.208 27.514 127.204 27.6353 127.194 27.738H121.454C121.473 28.3913 121.706 28.9373 122.154 29.376C122.612 29.8147 123.186 30.034 123.876 30.034C124.856 30.034 125.584 29.628 126.06 28.816L127.012 29.474C126.331 30.5847 125.281 31.14 123.862 31.14ZM121.538 26.758H125.976C125.883 26.198 125.636 25.7547 125.234 25.428C124.842 25.092 124.376 24.924 123.834 24.924C123.284 24.924 122.789 25.092 122.35 25.428C121.921 25.7547 121.65 26.198 121.538 26.758Z" fill="#130F49"/>
<path d="M60.076 53L65.966 39.51H67.904L73.794 53H71.476L69.937 49.466H63.895L62.375 53H60.076ZM66.916 42.512L64.75 47.49H69.082L66.916 42.512ZM77.1849 56.971H75.0949V43.5H77.1849V44.773C77.4762 44.3677 77.8942 44.0257 78.4389 43.747C78.9962 43.4557 79.5979 43.31 80.2439 43.31C81.5359 43.31 82.6189 43.7913 83.4929 44.754C84.3796 45.7167 84.8229 46.882 84.8229 48.25C84.8229 49.618 84.3796 50.7833 83.4929 51.746C82.6189 52.7087 81.5359 53.19 80.2439 53.19C79.5979 53.19 78.9962 53.0507 78.4389 52.772C77.8942 52.4807 77.4762 52.1323 77.1849 51.727V56.971ZM79.8639 51.29C80.6872 51.29 81.3649 50.9987 81.8969 50.416C82.4289 49.8333 82.6949 49.1113 82.6949 48.25C82.6949 47.3887 82.4289 46.6667 81.8969 46.084C81.3649 45.5013 80.6872 45.21 79.8639 45.21C79.0279 45.21 78.3439 45.5013 77.8119 46.084C77.2799 46.6667 77.0139 47.3887 77.0139 48.25C77.0139 49.1113 77.2799 49.8333 77.8119 50.416C78.3439 50.9987 79.0279 51.29 79.8639 51.29ZM88.8514 56.971H86.7614V43.5H88.8514V44.773C89.1427 44.3677 89.5607 44.0257 90.1054 43.747C90.6627 43.4557 91.2644 43.31 91.9104 43.31C93.2024 43.31 94.2854 43.7913 95.1594 44.754C96.046 45.7167 96.4894 46.882 96.4894 48.25C96.4894 49.618 96.046 50.7833 95.1594 51.746C94.2854 52.7087 93.2024 53.19 91.9104 53.19C91.2644 53.19 90.6627 53.0507 90.1054 52.772C89.5607 52.4807 89.1427 52.1323 88.8514 51.727V56.971ZM91.5304 51.29C92.3537 51.29 93.0314 50.9987 93.5634 50.416C94.0954 49.8333 94.3614 49.1113 94.3614 48.25C94.3614 47.3887 94.0954 46.6667 93.5634 46.084C93.0314 45.5013 92.3537 45.21 91.5304 45.21C90.6944 45.21 90.0104 45.5013 89.4784 46.084C88.9464 46.6667 88.6804 47.3887 88.6804 48.25C88.6804 49.1113 88.9464 49.8333 89.4784 50.416C90.0104 50.9987 90.6944 51.29 91.5304 51.29ZM106.718 53.228C105.642 53.228 104.673 53.0063 103.811 52.563C102.95 52.1197 102.317 51.5307 101.911 50.796L103.659 49.409C104.407 50.5617 105.452 51.138 106.794 51.138C107.44 51.138 107.966 50.986 108.371 50.682C108.777 50.3653 108.979 49.96 108.979 49.466C108.979 48.5667 108.34 47.8827 107.06 47.414L105.578 46.882C104.489 46.4893 103.685 45.989 103.165 45.381C102.646 44.7603 102.386 43.994 102.386 43.082C102.386 41.9293 102.798 41.011 103.621 40.327C104.445 39.6303 105.496 39.282 106.775 39.282C108.485 39.282 109.847 39.8963 110.86 41.125L109.321 42.626C108.625 41.79 107.77 41.372 106.756 41.372C106.161 41.372 105.654 41.5113 105.236 41.79C104.831 42.0687 104.628 42.4487 104.628 42.93C104.628 43.3987 104.78 43.7723 105.084 44.051C105.401 44.317 105.933 44.5893 106.68 44.868L108.048 45.381C109.087 45.7737 109.879 46.2867 110.423 46.92C110.968 47.5533 111.234 48.3577 111.221 49.333C111.221 50.4983 110.803 51.442 109.967 52.164C109.131 52.8733 108.048 53.228 106.718 53.228ZM116.959 53.095C115.996 53.095 115.211 52.829 114.603 52.297C114.008 51.7523 113.71 50.967 113.71 49.941V45.362H111.734V43.5H113.71V40.859H115.8V43.5H118.517V45.362H115.8V49.599C115.8 50.1817 115.927 50.5997 116.18 50.853C116.433 51.0937 116.839 51.214 117.396 51.214C117.852 51.214 118.226 51.1507 118.517 51.024V52.886C118.061 53.0253 117.542 53.095 116.959 53.095ZM128.007 51.765C127.057 52.715 125.879 53.19 124.473 53.19C123.067 53.19 121.883 52.715 120.92 51.765C119.97 50.8023 119.495 49.6307 119.495 48.25C119.495 46.8693 119.97 45.704 120.92 44.754C121.883 43.7913 123.067 43.31 124.473 43.31C125.879 43.31 127.057 43.7913 128.007 44.754C128.97 45.704 129.451 46.8693 129.451 48.25C129.451 49.6307 128.97 50.8023 128.007 51.765ZM124.473 51.252C125.296 51.252 125.974 50.967 126.506 50.397C127.051 49.8143 127.323 49.0987 127.323 48.25C127.323 47.4013 127.051 46.692 126.506 46.122C125.974 45.5393 125.296 45.248 124.473 45.248C123.637 45.248 122.947 45.5393 122.402 46.122C121.87 46.692 121.604 47.4013 121.604 48.25C121.604 49.0987 121.87 49.8143 122.402 50.397C122.947 50.967 123.637 51.252 124.473 51.252ZM131.363 53V43.5H133.453V45.191C133.63 44.659 133.953 44.2283 134.422 43.899C134.903 43.5697 135.416 43.405 135.961 43.405C136.29 43.405 136.563 43.4303 136.778 43.481V45.628C136.474 45.514 136.126 45.457 135.733 45.457C135.1 45.457 134.561 45.7167 134.118 46.236C133.675 46.7427 133.453 47.452 133.453 48.364V53H131.363ZM142.351 53.19C140.907 53.19 139.716 52.7277 138.779 51.803C137.854 50.8783 137.392 49.694 137.392 48.25C137.392 46.844 137.861 45.6723 138.798 44.735C139.735 43.785 140.92 43.31 142.351 43.31C143.668 43.31 144.758 43.728 145.619 44.564C146.493 45.4 146.93 46.5527 146.93 48.022C146.93 48.2753 146.924 48.5033 146.911 48.706H139.444C139.495 49.4787 139.792 50.1057 140.337 50.587C140.882 51.0557 141.559 51.29 142.37 51.29C143.586 51.29 144.492 50.8087 145.087 49.846L146.683 50.986C145.771 52.4553 144.327 53.19 142.351 53.19ZM139.539 47.186H144.821C144.707 46.5273 144.409 46.0143 143.928 45.647C143.459 45.267 142.908 45.077 142.275 45.077C141.616 45.077 141.027 45.2607 140.508 45.628C140.001 45.9953 139.678 46.5147 139.539 47.186Z" fill="#130F49"/>
<path d="M40.0921 37.5067C40.1074 36.3169 40.4235 35.1504 41.0108 34.1156C41.5981 33.0809 42.4376 32.2115 43.4512 31.5883C42.8073 30.6687 41.9578 29.9119 40.9702 29.378C39.9827 28.8441 38.8842 28.5479 37.7622 28.5127C35.3686 28.2615 33.0481 29.945 31.8283 29.945C30.585 29.945 28.707 28.5377 26.6848 28.5793C25.3767 28.6216 24.1019 29.0019 22.9846 29.6834C21.8672 30.3648 20.9454 31.324 20.309 32.4676C17.5524 37.2404 19.6086 44.2549 22.2493 48.113C23.5705 50.0021 25.1146 52.1124 27.1351 52.0375C29.1122 51.9555 29.8506 50.7768 32.2371 50.7768C34.6015 50.7768 35.2943 52.0375 37.3558 51.99C39.4773 51.9555 40.814 50.0924 42.0889 48.1854C43.0381 46.8393 43.7686 45.3515 44.2532 43.7773C43.0207 43.256 41.9688 42.3834 41.2289 41.2683C40.4889 40.1532 40.0936 38.8449 40.0921 37.5067Z" fill="#130F49"/>
<path d="M36.1986 25.9756C37.3553 24.5869 37.9252 22.802 37.7872 21C36.02 21.1856 34.3875 22.0302 33.2151 23.3656C32.6419 24.018 32.2029 24.7769 31.9232 25.599C31.6434 26.4212 31.5285 27.2904 31.5849 28.1569C32.4688 28.166 33.3433 27.9745 34.1425 27.5966C34.9416 27.2187 35.6446 26.6645 36.1986 25.9756Z" fill="#130F49"/>
</svg>
