<svg width="895" height="1261" viewBox="0 0 895 1261" fill="none" xmlns="http://www.w3.org/2000/svg">
<path opacity="0.8" fill-rule="evenodd" clip-rule="evenodd" d="M600.516 829.504C546.826 917.71 566.739 1060.73 472.657 1103.33C379.278 1145.61 283.905 1044.98 185.102 1017.58C89.116 990.964 -23.8375 1012.55 -97.2995 945.274C-174.164 874.886 -205.825 764.255 -205.308 660.063C-204.81 559.908 -155.288 468.33 -94.5354 388.719C-37.9901 314.62 33.2093 242.382 125.164 227.001C211.189 212.612 280.145 296.316 366.012 311.684C463.564 329.144 574.311 265.639 655.846 321.981C740.955 380.793 791.486 495.141 780.278 597.948C769.421 697.531 652.596 743.943 600.516 829.504Z" fill="#FEDFB1"/>
</svg>
